<?xml version="1.0" encoding="UTF-8"?>
<svg id="Calque_2" data-name="Calque 2" xmlns="http://www.w3.org/2000/svg" viewBox="0 0 437.15 491.03">
  <defs>
    <style>
      .cls-1 {
        fill: #fff;
      }
    </style>
  </defs>
  <g id="Calque_1-2" data-name="Calque 1">
    <path class="cls-1" d="m254,142.51c109-187-171-193-71,0C230.31,233.82,0-56.49,0,238.51s254.38-20.17,177,107c-115,189,196,199,83,0-66.33-116.81,170,197,177-103s-236.35-8.47-183-100Z"/>
  </g>
  <g id="Calque_2-2" data-name="Calque 2">
    <path class="cls-1" d="m390.06,153.93S355.06-26.07,190.06,4.93C25.06,35.93,25.06,201.93,45.06,297.93c19.81,95.08,97.85,159.99,152,163s148-1,204-141c-97,149-292.61,103.22-300-46-10-202,162-334,289-120Z"/>
  </g>
</svg>