<?xml version="1.0" encoding="UTF-8"?>
<svg id="Calque_2" data-name="Calque 2" xmlns="http://www.w3.org/2000/svg" viewBox="0 0 321.66 3618.24">
  <defs>
    <style>
      .cls-1 {
        fill: #fff;
      }
    </style>
  </defs>
  <g id="Calque_2_-_copie" data-name="Calque 2 - copie">
    <g>
      <g>
        <path class="cls-1" d="m160.89,285.37c-57.27-.36-115.47-30.45-141.82-82.63C.99,167.65.55,124.56,17.19,88.77,41.92,33.85,101.58.22,160.89.03c59.99-1.18,121.84,31.29,147.84,86.78,17.73,36.69,17.36,81.98-1.89,117.88-27.5,52.73-88.04,81.65-145.95,80.67h0Zm0-2c46.48-.23,92.25-23.57,118.15-62.26,55.64-82.9,3.26-184.4-91.33-202.37C106.02,2.27,16.48,58.86,15.06,146.2c-1.3,78.92,69.08,138.72,145.83,137.17h0Z"/>
        <path class="cls-1" d="m285.58,146.2c.74-66.76-61.54-112.05-124.69-110.14-69.15.34-131.99,60.57-114.9,131.76,8.64,35.7,38.06,63.55,72.08,75.62,34.52,12.51,74.11,10.1,107.06-6.24,34.72-16.87,60.28-51.58,60.45-91.01h0Zm2,0c1.16,49.4-31.97,96.26-77.48,114.85-82.89,34.8-183.3-21.77-182.9-114.85C28.88,55.77,128.51,3.18,208.54,35.64c44.87,17.48,78.85,61.79,79.04,110.56h0Z"/>
        <path class="cls-1" d="m160.89,239.31c-38.37-.52-77.48-20.08-95.68-54.88-12.59-23.68-13.02-52.96-1.87-77.34,16.59-37.54,57.14-60.66,97.55-61,56.71-1.57,111.81,40.47,110.55,100.11-1.15,57.97-56.53,94.62-110.55,93.11h0Zm0-2c36.96-.27,71.64-23.61,84.76-58.05,22.88-58.83-24.22-116.33-84.76-117.18-63.45-1.57-114.59,57.34-88.89,119.13,14.49,34.92,51.35,57.08,88.89,56.09h0Z"/>
        <path class="cls-1" d="m235.3,146.2c.85-29.06-20.86-52.95-47.87-60.69-17.08-5.08-35.89-4.64-52.37,1.95-23.83,9.21-42.59,32.71-41.58,58.74,1.81,45.15,52.52,67.44,92.39,56.4,26.5-6.47,48.95-27.8,49.43-56.4h0Zm2,0c.7,55.89-55.31,93.43-107.8,74.01-42.06-14.95-64.99-63.91-44.45-104.61,23.78-47.66,91.87-58.3,129.37-20.88,13.85,13.41,22.56,32.13,22.88,51.48h0Z"/>
        <path class="cls-1" d="m160.89,193.26c-26.69-.74-53.93-18.37-55.28-47.06-1.12-32.77,29.44-55.93,60.7-54,29.3,1.35,55.9,23.16,54.85,54-1.31,31.53-31.68,48.22-60.28,47.06h0Zm0-2c23.91-.63,41.81-21.79,40.28-45.06-1.85-27.21-30.47-44.55-56.31-35.9-15.68,4.83-28.62,19.08-29.24,35.9-1.43,25.17,20.14,46.13,45.28,45.06h0Z"/>
        <path class="cls-1" d="m185.03,146.2c.75-13.21-12.64-19.61-24.14-18.03-17.88,2.04-25.04,23.46-5.71,29.63,3.87,1.38,7.85,1.84,12.14,1.97,2.29.02,4.85-.15,7.42-.97,5.56-1.65,9.98-6.64,10.29-12.6h0Zm2,0c1.4,22.02-17.04,39.04-38.97,31.19-21.98-8.1-27.87-38.26-8.93-52.81,9.45-7.08,22.13-8.7,32.31-3.3,9.13,4.97,14.89,14.75,15.58,24.93h0Z"/>
      </g>
      <g>
        <path class="cls-1" d="m161.89,146.2c2.83,263.13,5.29,568.09,6.81,831.77,3.19,277.28,3.87,554.62-7.23,831.77,0,0-2,0-2,0-14.18-343.78-7.56-695.25-5.36-1039.71,1.41-185.16,3.86-438.66,5.78-623.83,0,0,2,0,2,0h0Z"/>
        <path class="cls-1" d="m161.17,145.24c24.73,4.21,49.27,9.1,73.72,14.64,6.09,1.4,12.31,2.35,18.47,3.52,12.44,2.29,23.97,7.29,35.05,13.39,5.57,3.16,11.05,6.61,16.2,11.15l-.57,1.92c-13.15,1.73-25.74.34-38.43-2.05-12.41-2.18-23.61-8.22-35.29-12.59-23.5-8.73-46.72-18.06-69.73-28.06,0,0,.57-1.92.57-1.92h0Z"/>
        <path class="cls-1" d="m160.1,145.58c9.27-15.4,18.96-30.44,28.82-45.43,6.68-9.92,13.48-19.69,19.62-29.96,6.39-10.25,14.96-18.62,24.38-26.18,4.82-3.76,9.88-7.34,15.84-10.2,0,0,1.57,1.24,1.57,1.24-2.92,12.37-8.53,23.09-15.11,33.54-6.28,10.25-15.69,17.94-23.73,26.7-16.13,17.65-32.7,34.82-49.81,51.54,0,0-1.57-1.24-1.57-1.24h0Z"/>
        <path class="cls-1" d="m160.1,146.82c-12.88-12.53-25.32-25.39-37.67-38.41-8.14-8.76-16.11-17.61-24.71-25.93-8.52-8.56-14.73-18.81-19.94-29.71-2.56-5.55-4.9-11.29-6.33-17.74,0,0,1.57-1.24,1.57-1.24,11.38,5.66,20.54,13.56,29.22,22.35,8.55,8.45,13.9,19.37,20.6,29.19,13.51,19.72,26.45,39.77,38.84,60.24,0,0-1.57,1.24-1.57,1.24h0Z"/>
        <path class="cls-1" d="m161.17,147.16c-23.01,10-46.23,19.32-69.73,28.06-5.86,2.16-11.59,4.77-17.39,7.16-11.67,4.89-24.05,7-36.67,7.96-6.39.4-12.86.51-19.66-.48,0,0-.57-1.92-.57-1.92,10.06-8.64,21.36-14.36,33.29-19.3,11.58-4.96,24.26-6.03,36.43-8.76,24.45-5.54,48.99-10.43,73.72-14.64,0,0,.57,1.92.57,1.92h0Z"/>
      </g>
    </g>
    <g>
      <g>
        <path class="cls-1" d="m161.74,3332.89c57.26.75,115.26,31.24,141.25,83.6,17.84,35.21,17.98,78.3,1.09,113.98-25.1,54.75-84.99,87.98-144.3,87.75-60,.76-121.62-32.13-147.24-87.79-17.48-36.82-16.8-82.1,2.7-117.86,27.86-52.54,88.6-81.05,146.5-79.67h0Zm-.01,2c-46.48-.09-92.41,22.93-118.57,61.45-56.21,82.52-4.52,184.37,89.94,202.99,81.57,17.03,171.5-38.95,173.52-126.27,1.84-78.91-68.13-139.19-144.88-138.17h0Z"/>
        <path class="cls-1" d="m36.1,3471.2c-1.2,66.76,60.77,112.47,123.93,110.99,69.15.13,132.41-59.66,115.8-130.97-8.39-35.76-37.62-63.81-71.56-76.11-34.44-12.74-74.04-10.61-107.1,5.51-34.84,16.63-60.63,51.16-61.07,90.59h0Zm-2-.01c-.82-49.41,32.63-96.03,78.26-114.32,83.13-34.23,183.15,23.03,182.11,116.1-2.3,90.41-102.29,142.32-182.1,109.31-44.75-17.79-78.42-62.33-78.28-111.1h0Z"/>
        <path class="cls-1" d="m161.43,3378.95c38.36.78,77.34,20.62,95.3,55.54,12.42,23.77,12.65,53.04,1.34,77.35-16.85,37.43-57.56,60.27-97.97,60.33-56.72,1.18-111.53-41.23-109.86-100.87,1.55-57.96,57.18-94.23,111.19-92.35h0Zm-.01,2c-36.96.02-71.8,23.12-85.16,57.46-23.28,58.68,23.42,116.49,83.96,117.76,63.44,2,114.99-56.55,89.71-118.52-14.25-35.02-50.95-57.43-88.51-56.7h0Z"/>
        <path class="cls-1" d="m86.38,3471.55c-1.05,29.06,20.49,53.09,47.46,61.02,17.05,5.19,35.86,4.89,52.39-1.59,23.9-9.05,42.81-32.42,41.98-58.46-1.5-45.16-52.06-67.8-92.01-57.03-26.54,6.29-49.14,27.46-49.82,56.06h0Zm-2-.01c-.31-55.9,55.95-93.05,108.3-73.27,41.96,15.24,64.55,64.35,43.73,104.91-24.1,47.5-92.27,57.67-129.51,19.99-13.75-13.51-22.34-32.29-22.53-51.64h0Z"/>
        <path class="cls-1" d="m161.11,3425c26.69.92,53.8,18.74,54.95,47.43.89,32.78-29.82,55.73-61.07,53.58-29.29-1.55-55.74-23.55-54.48-54.37,1.52-31.52,32.01-48,60.6-46.64h0Zm-.01,2c-23.91.46-41.96,21.51-40.58,44.78,1.66,27.22,30.16,44.75,56.07,36.29,15.71-4.72,28.75-18.88,29.48-35.7,1.6-25.16-19.82-46.27-44.97-45.37h0Z"/>
        <path class="cls-1" d="m136.65,3471.89c-.84,13.2,12.51,19.69,24.01,18.19,17.89-1.91,25.2-23.29,5.91-29.59-3.86-1.41-7.84-1.89-12.12-2.05-2.29-.03-4.85.11-7.42.92-5.57,1.61-10.03,6.57-10.38,12.53h0Zm-2-.01c-1.25-22.03,17.31-38.92,39.18-30.92,21.92,8.25,27.6,38.45,8.57,52.87-9.5,7.01-22.19,8.55-32.34,3.08-9.1-5.04-14.79-14.85-15.41-25.03h0Z"/>
      </g>
      <g>
        <path class="cls-1" d="m159.79,3472.05c-.04-550.82-19.57-1111.48.17-1661.82,0,0,2,0,2,0,14.45,343.42,8.11,694.54,6.17,1038.65-1.65,191.95-2.54,432.08-6.35,623.17,0,0-2-.01-2-.01h0Z"/>
        <path class="cls-1" d="m160.5,3473.02c-24.7-4.38-49.21-9.44-73.62-15.14-6.08-1.44-12.3-2.43-18.45-3.64-12.43-2.37-23.91-7.45-34.96-13.63-5.54-3.2-11-6.68-16.12-11.26,0,0,.58-1.91.58-1.91,13.16-1.64,25.74-.17,38.41,2.31,12.39,2.27,23.55,8.38,35.2,12.83,23.44,8.89,46.59,18.38,69.53,28.53,0,0-.58,1.91-.58,1.91h0Z"/>
        <path class="cls-1" d="m161.57,3472.69c-9.37,15.33-19.16,30.31-29.13,45.23-6.74,9.87-13.61,19.6-19.82,29.83-6.46,10.2-15.09,18.52-24.56,26.02-4.85,3.73-9.93,7.27-15.91,10.09l-1.56-1.25c3.01-12.35,8.68-23.03,15.34-33.43,6.35-10.21,15.82-17.83,23.91-26.54,16.25-17.54,32.94-34.59,50.16-51.2,0,0,1.56,1.25,1.56,1.25h0Z"/>
        <path class="cls-1" d="m161.58,3471.44c12.79,12.62,25.15,25.56,37.41,38.66,8.08,8.81,15.99,17.72,24.53,26.09,8.46,8.62,14.6,18.91,19.74,29.84,2.52,5.57,4.82,11.32,6.21,17.79,0,0-1.58,1.23-1.58,1.23-11.34-5.74-20.45-13.7-29.06-22.55-8.49-8.51-13.76-19.46-20.4-29.33-13.38-19.81-26.18-39.95-38.43-60.5,0,0,1.58-1.23,1.58-1.23h0Z"/>
        <path class="cls-1" d="m160.51,3471.1c23.08-9.84,46.36-19.01,69.92-27.58,5.88-2.12,11.63-4.69,17.44-7.04,11.7-4.81,24.1-6.84,36.72-7.71,6.39-.35,12.86-.42,19.66.61l.56,1.92c-10.12,8.57-21.46,14.22-33.43,19.07-11.62,4.88-24.3,5.86-36.49,8.51-24.49,5.37-49.06,10.09-73.82,14.13,0,0-.56-1.92-.56-1.92h0Z"/>
      </g>
    </g>
  </g>
</svg>